<svg width="309" height="88" fill="none" xmlns="http://www.w3.org/2000/svg"><path d="M244.289 9.305a70.432 70.432 0 007.733-7.602.358.358 0 00.065-.35.365.365 0 00-.262-.238c-11.756-3.414-47.324-.09-64.183 25.624-.228.351-.184.447.077.671 5.878-9.622 19.267-17.153 35.415-18.745a75.466 75.466 0 0120.074 1.03c.617.108.591 0 1.081-.39z" fill="red"/><path d="M227.38 54.312h5.084l-8.579-20.982h-6.355l-8.579 20.982h4.919l1.353-3.548h10.803l1.354 3.548zm-10.619-7.557l3.896-10.12 3.812 10.12h-7.708zM196.509 52.1l5.338-8.797c.197-.332 1.226-2.11 1.569-2.781h.064a54.48 54.48 0 00-.07 2.78v11.01h4.448V33.33h-4.715l-6.577 11.232-6.583-11.232h-4.913v20.982h4.347v-11.01c0-.638 0-1.994-.07-2.78h.07c.337.64 1.366 2.449 1.563 2.78l5.338 8.798h.191zm101.141 0l5.338-8.797c.204-.332 1.233-2.11 1.57-2.781h.064c-.045.786-.07 2.142-.07 2.78v11.01H309V33.33h-4.715l-6.577 11.232-6.578-11.232h-4.905v20.982h4.334v-11.01c0-.638 0-1.994-.064-2.78h.064c.336.64 1.366 2.449 1.569 2.78l5.338 8.798h.184zm-115.085-3.861h-4.677v.134c0 1.63-.915 1.976-2.936 1.976h-4.499c-3.413 0-3.908-.397-3.908-4.188v-4.686c0-3.791.495-4.194 3.908-4.194h4.505c2.021 0 2.936.352 2.936 1.982h4.677c0-4.475-1.773-6.029-7.359-6.029h-5.776c-5.294 0-7.372 2.027-7.372 7.212v6.738c0 5.185 2.078 7.218 7.372 7.218h5.776c5.586 0 7.359-1.535 7.359-6.029l-.006-.134zm76.856 0h-4.677v.134c0 1.63-.909 1.976-2.936 1.976h-4.461c-3.413 0-3.908-.397-3.908-4.188v-4.686c0-3.791.495-4.194 3.908-4.194h4.505c2.027 0 2.936.352 2.936 1.982h4.633c0-4.475-1.773-6.029-7.359-6.029h-5.776c-5.294 0-7.372 2.027-7.372 7.212v6.738c0 5.185 2.078 7.218 7.372 7.218h5.776c5.586 0 7.359-1.535 7.359-6.029v-.134zm19.108-1.835v1.97c0 1.63-.915 1.974-2.935 1.974h-5.434c-3.412 0-3.908-.396-3.908-4.187v-4.686c0-3.791.496-4.194 3.908-4.194h5.198c2.021 0 2.936.352 2.936 1.982h4.677c0-4.475-1.773-6.029-7.365-6.029h-6.469c-5.293 0-7.371 2.027-7.371 7.212v6.738c0 5.185 2.078 7.218 7.371 7.218h6.469c5.592 0 7.365-1.535 7.365-6.029v-5.55h-10.599v3.581h6.157z" fill="#051039"/><path d="M226.763 78.139a70.56 70.56 0 00-7.734 7.608.378.378 0 00-.078.166.365.365 0 00.275.422c11.756 3.414 47.324.09 64.183-25.63.229-.345.184-.448-.076-.64-5.878 9.622-19.268 17.147-35.415 18.745a75.482 75.482 0 01-20.075-1.036c-.616-.134-.591-.025-1.08.365z" fill="red"/><path d="M0 38.694h6.85c2.37 0 2.98 1.278 2.98 2.595.036.47-.084.94-.342 1.334a2.124 2.124 0 01-1.08.846 2.446 2.446 0 011.421.925c.35.469.522 1.048.485 1.632 0 1.17-.725 3.063-3.527 3.063H0V38.694zm2.18 4.232h4.06c.636 0 1.411-.147 1.411-1.33 0-.863-.521-1.279-1.786-1.279H2.18v2.609zm0 4.558h3.9c.973 0 1.964-.192 1.964-1.534 0-.966-.667-1.477-1.646-1.477H2.18v3.011zm12.525-8.79h8.998v1.63h-6.818v2.653h6.545v1.63h-6.545v2.896h6.94v1.63h-9.12v-10.44zm16.198 1.63h-3.89v-1.63h9.99v1.63h-3.889v8.79h-2.211v-8.79zm12.57 0h-3.889v-1.63h9.958v1.63h-3.89v8.79h-2.179v-8.79zm9.742-1.63h8.998v1.63h-6.819v2.653h6.546v1.63h-6.545v2.896h6.939v1.63h-9.12v-10.44zm13.371 0h6.564c2.638 0 3.495 1.208 3.495 2.832.038.552-.111 1.1-.423 1.556a2.441 2.441 0 01-1.292.956c1.239.262 1.512 1.343 1.512 2.82 0 .498 0 1.662.439 2.23h-2.352a3.407 3.407 0 01-.266-1.572c0-1.49-.204-2.557-1.799-2.557h-3.686v4.117h-2.18l-.012-10.383zm5.935 4.673c1.208 0 1.862-.371 1.862-1.534 0-1.164-.712-1.51-1.862-1.51h-3.743v3.044h3.743zm15.086-4.673h2.352l2.332 8.119 2.586-8.088h2.263l2.63 8.088 2.383-8.088h2.263l-3.483 10.421h-2.35l-2.581-7.998-2.599 7.998H91.02l-3.413-10.453zm23.309 0h2.587l4.613 10.42h-2.421l-1.093-2.557h-4.874l-1.074 2.557h-2.351l4.613-10.42zm3.038 6.2l-1.773-4.391-1.799 4.392h3.572zm10.059.25l-4.531-6.45h2.676l2.961 4.64 2.961-4.64h2.657l-4.531 6.45v3.97h-2.174l-.019-3.97zm14.299-6.744c1.595 0 4.792.294 5.084 3.312h-2.351c-.077-.8-.801-1.675-2.612-1.675-1.455 0-2.409.454-2.409 1.432 0 2.449 7.721.102 7.721 4.552 0 2.691-2.777 3.388-4.982 3.388-3.73 0-5.223-1.477-5.255-3.663h2.351c.064 1.375 1.195 2.027 2.98 2.027 1.322 0 2.542-.39 2.542-1.528 0-2.557-7.625-.34-7.625-4.616-.019-2.32 2.027-3.229 4.556-3.229z" fill="#051039"/></svg>