<svg xmlns="http://www.w3.org/2000/svg" width="21" height="20" viewBox="0 0 21 20">
    <path fill="#061D50" fill-rule="evenodd" d="M8.576 15.36c-3.837 0-6.958-3.086-6.958-6.88 0-3.793 3.121-6.88 6.958-6.88 3.835 0 6.955 3.087 6.955 6.88 0 3.794-3.12 6.88-6.955 6.88m12.196 3.329l-5.278-5.22a8.363 8.363 0 0 0 1.656-4.988C17.15 3.805 13.303 0 8.576 0 3.847 0 0 3.805 0 8.48c0 4.676 3.847 8.48 8.576 8.48a8.585 8.585 0 0 0 5.89-2.335l5.208 5.15a.779.779 0 0 0 1.098 0 .761.761 0 0 0 0-1.086"/>
</svg>
